<svg width="128" height="49" viewBox="0 0 128 49" fill="none" xmlns="http://www.w3.org/2000/svg">
<g clip-path="url(#clip0_1_51)">
<path d="M67.547 14.7526C67.547 16.194 66.3858 17.3552 64.9444 17.3552C63.5029 17.3552 62.3418 16.194 62.3418 14.7526C62.3418 13.3111 63.4629 12.15 64.9444 12.15C66.4258 12.19 67.547 13.3512 67.547 14.7526ZM56.8162 19.9978C56.8162 20.2381 56.8162 20.6385 56.8162 20.6385C56.8162 20.6385 55.575 19.0368 52.9324 19.0368C48.568 19.0368 45.1646 22.3602 45.1646 26.9648C45.1646 31.5293 48.5279 34.8927 52.9324 34.8927C55.615 34.8927 56.8162 33.2511 56.8162 33.2511V33.9317C56.8162 34.2521 57.0565 34.4923 57.3768 34.4923H60.62V19.4372C60.62 19.4372 57.6571 19.4372 57.3768 19.4372C57.0565 19.4372 56.8162 19.7175 56.8162 19.9978ZM56.8162 29.6475C56.2156 30.5283 55.0144 31.2891 53.573 31.2891C51.0104 31.2891 49.0485 29.6875 49.0485 26.9648C49.0485 24.2421 51.0104 22.6405 53.573 22.6405C54.9744 22.6405 56.2557 23.4413 56.8162 24.2821V29.6475ZM63.0224 19.4372H66.8663V34.4923H63.0224V19.4372ZM120.44 19.0368C117.797 19.0368 116.556 20.6385 116.556 20.6385V12.19H112.712V34.4923C112.712 34.4923 115.675 34.4923 115.955 34.4923C116.276 34.4923 116.516 34.212 116.516 33.9317V33.2511C116.516 33.2511 117.757 34.8927 120.4 34.8927C124.764 34.8927 128.168 31.5293 128.168 26.9648C128.168 22.4002 124.764 19.0368 120.44 19.0368ZM119.799 31.2491C118.318 31.2491 117.157 30.4883 116.556 29.6074V24.2421C117.157 23.4413 118.438 22.6004 119.799 22.6004C122.362 22.6004 124.324 24.202 124.324 26.9247C124.324 29.6475 122.362 31.2491 119.799 31.2491ZM110.71 25.5634V34.5323H106.866V26.0038C106.866 23.5213 106.065 22.5203 103.903 22.5203C102.742 22.5203 101.541 23.1209 100.78 24.0018V34.4923H96.9363V19.4372H99.9794C100.3 19.4372 100.54 19.7175 100.54 19.9978V20.6385C101.661 19.4773 103.143 19.0368 104.624 19.0368C106.306 19.0368 107.707 19.5173 108.828 20.4783C110.19 21.5994 110.71 23.0409 110.71 25.5634ZM87.607 19.0368C84.9644 19.0368 83.7231 20.6385 83.7231 20.6385V12.19H79.8793V34.4923C79.8793 34.4923 82.8423 34.4923 83.1225 34.4923C83.4429 34.4923 83.6831 34.212 83.6831 33.9317V33.2511C83.6831 33.2511 84.9243 34.8927 87.567 34.8927C91.9313 34.8927 95.3347 31.5293 95.3347 26.9648C95.3748 22.4002 91.9714 19.0368 87.607 19.0368ZM86.9664 31.2491C85.4849 31.2491 84.3237 30.4883 83.7231 29.6074V24.2421C84.3237 23.4413 85.605 22.6004 86.9664 22.6004C89.5289 22.6004 91.4909 24.202 91.4909 26.9247C91.4909 29.6475 89.5289 31.2491 86.9664 31.2491ZM76.556 19.0368C77.7171 19.0368 78.3177 19.237 78.3177 19.237V22.8006C78.3177 22.8006 75.1145 21.7195 73.1125 24.0018V34.5323H69.2687V19.4372C69.2687 19.4372 72.2317 19.4372 72.5119 19.4372C72.8322 19.4372 73.0725 19.7175 73.0725 19.9978V20.6385C73.7932 19.7976 75.3548 19.0368 76.556 19.0368ZM36.6361 33.1309C36.4359 32.6505 36.2357 32.1299 36.0355 31.6895C35.7151 30.9688 35.3948 30.2881 35.1145 29.6475L35.0745 29.6074C32.3117 23.6014 29.3488 17.5153 26.2257 11.5093L26.1055 11.2691C25.7852 10.6685 25.4649 10.0278 25.1446 9.3872C24.7442 8.66648 24.3438 7.90572 23.7031 7.185C22.4218 5.5834 20.58 4.70251 18.618 4.70251C16.616 4.70251 14.8142 5.5834 13.4929 7.10492C12.8923 7.82564 12.4519 8.5864 12.0515 9.30712C11.7312 9.94776 11.4108 10.5884 11.0905 11.189L10.9704 11.4292C7.88732 17.4352 4.88431 23.5213 2.12155 29.5273L2.08151 29.6074C1.80123 30.2481 1.48091 30.9287 1.16059 31.6495C0.960391 32.0899 0.760191 32.5704 0.559991 33.0909C0.0394705 34.5724 -0.12069 35.9738 0.0795105 37.4152C0.519951 40.4182 2.52195 42.9408 5.28471 44.0619C6.32576 44.5023 7.40684 44.7025 8.52796 44.7025C8.84828 44.7025 9.24868 44.6625 9.569 44.6224C10.8903 44.4623 12.2517 44.0218 13.573 43.2611C15.2146 42.3402 16.7762 41.0188 18.538 39.0969C20.2997 41.0188 21.9013 42.3402 23.5029 43.2611C24.8243 44.0218 26.1856 44.4623 27.5069 44.6224C27.8272 44.6625 28.2277 44.7025 28.548 44.7025C29.6691 44.7025 30.7902 44.5023 31.7912 44.0619C34.594 42.9408 36.556 40.3782 36.9964 37.4152C37.3167 36.0138 37.1566 34.6124 36.6361 33.1309ZM18.578 35.213C16.4158 32.4903 15.0144 29.9277 14.534 27.7656C14.3338 26.8447 14.2937 26.0439 14.4138 25.3231C14.4939 24.6825 14.7342 24.1219 15.0545 23.6415C15.8152 22.5604 17.0965 21.8797 18.578 21.8797C20.0595 21.8797 21.3808 22.5203 22.1015 23.6415C22.4218 24.1219 22.6621 24.6825 22.7422 25.3231C22.8623 26.0439 22.8222 26.8847 22.622 27.7656C22.1416 29.8877 20.7402 32.4503 18.578 35.213ZM34.554 37.0949C34.2737 39.177 32.8723 40.9788 30.9103 41.7796C29.9494 42.18 28.9083 42.3001 27.8673 42.18C26.8663 42.0599 25.8653 41.7396 24.8243 41.139C23.3828 40.3382 21.9414 39.0969 20.2597 37.2551C22.9023 34.0118 24.5039 31.0489 25.1045 28.4062C25.3848 27.165 25.4249 26.0439 25.3047 25.0028C25.1446 24.0018 24.7842 23.0809 24.2236 22.2801C22.9824 20.4783 20.9003 19.4372 18.578 19.4372C16.2557 19.4372 14.1736 20.5183 12.9324 22.2801C12.3718 23.0809 12.0114 24.0018 11.8513 25.0028C11.6911 26.0439 11.7312 27.205 12.0515 28.4062C12.6521 31.0489 14.2937 34.0519 16.8963 37.2951C15.2547 39.137 13.7732 40.3782 12.3318 41.179C11.2907 41.7796 10.2897 42.0999 9.28872 42.22C8.20764 42.3402 7.1666 42.18 6.24568 41.8196C4.28371 41.0188 2.88231 39.217 2.60203 37.1349C2.48191 36.1339 2.56199 35.1329 2.96239 34.0118C3.08251 33.6114 3.28271 33.211 3.48291 32.7305C3.76319 32.0899 4.08351 31.4092 4.40383 30.7285L4.44387 30.6485C7.20664 24.6825 10.1696 18.5964 13.2527 12.6705L13.3728 12.4302C13.6931 11.8296 14.0134 11.189 14.3338 10.5884C14.6541 9.94776 15.0144 9.34716 15.4549 8.82664C16.2957 7.86568 17.4168 7.34516 18.6581 7.34516C19.8993 7.34516 21.0204 7.86568 21.8613 8.82664C22.3017 9.34716 22.6621 9.94776 22.9824 10.5884C23.3027 11.189 23.623 11.8296 23.9434 12.4302L24.0635 12.6705C27.1065 18.6364 30.0695 24.7225 32.8323 30.6885V30.7285C33.1526 31.3692 33.4329 32.0899 33.7532 32.7305C33.9534 33.211 34.1536 33.6114 34.2737 34.0118C34.594 35.0529 34.7141 36.0539 34.554 37.0949Z" fill="black"/>
</g>
<defs>
<clipPath id="clip0_1_51">
<rect width="128" height="48" fill="white" transform="translate(0 0.702515)"/>
</clipPath>
</defs>
</svg>
