<svg width="110" height="49" viewBox="0 0 110 49" fill="none" xmlns="http://www.w3.org/2000/svg">
<path fill-rule="evenodd" clip-rule="evenodd" d="M67.9349 38.5094C61.5714 43.1998 52.3478 45.7023 44.4064 45.7023C33.2714 45.7023 23.247 41.5839 15.6631 34.7341C15.0673 34.1955 15.6011 33.4614 16.3161 33.8809C24.5006 38.6428 34.6203 41.5076 45.0738 41.5076C52.1237 41.5076 59.8792 40.049 67.0102 37.0222C68.0875 36.5645 68.9884 37.7276 67.9349 38.5094Z" fill="black"/>
<path fill-rule="evenodd" clip-rule="evenodd" d="M70.5805 35.4825C69.7702 34.4434 65.2037 34.9916 63.154 35.2347C62.5296 35.3109 62.4342 34.7675 62.9967 34.3767C66.6337 31.8169 72.6016 32.5558 73.2975 33.4138C73.9935 34.2766 73.1164 40.2588 69.6987 43.1141C69.1743 43.5526 68.6738 43.319 68.9074 42.7375C69.6749 40.8213 71.3956 36.5265 70.5805 35.4825Z" fill="black"/>
<path fill-rule="evenodd" clip-rule="evenodd" d="M63.2973 16.3062V13.8179C63.2973 13.4414 63.5833 13.1887 63.9265 13.1887H75.0663C75.4238 13.1887 75.7098 13.4461 75.7098 13.8179V15.9486C75.7051 16.3062 75.4048 16.7733 74.8709 17.5121L69.0984 25.7538C71.2434 25.7014 73.5076 26.0207 75.4524 27.1171C75.891 27.3649 76.0101 27.7272 76.0435 28.0847V30.7398C76.0435 31.102 75.6431 31.5263 75.2236 31.307C71.7964 29.51 67.2441 29.3145 63.4546 31.3261C63.0685 31.5358 62.6633 31.1163 62.6633 30.7541V28.2325C62.6633 27.8273 62.6681 27.1361 63.0733 26.5212L69.761 16.9306H63.9408C63.5833 16.9306 63.2973 16.678 63.2973 16.3062Z" fill="black"/>
<path fill-rule="evenodd" clip-rule="evenodd" d="M22.661 31.8314H19.2719C18.9477 31.8075 18.6903 31.5644 18.6665 31.2546V13.8609C18.6665 13.5129 18.9573 13.2364 19.3195 13.2364H22.4799C22.8088 13.2507 23.0709 13.5034 23.0948 13.818V16.0917H23.1568C23.9814 13.8942 25.5306 12.8694 27.6184 12.8694C29.7396 12.8694 31.0647 13.8942 32.0181 16.0917C32.8379 13.8942 34.7017 12.8694 36.699 12.8694C38.1195 12.8694 39.6734 13.4557 40.622 14.7713C41.6945 16.2347 41.4752 18.3606 41.4752 20.2244L41.4705 31.2022C41.4705 31.5501 41.1797 31.8314 40.8174 31.8314H37.4331C37.0946 31.8075 36.8229 31.5358 36.8229 31.2022V21.9833C36.8229 21.2493 36.8897 19.4189 36.7276 18.7229C36.475 17.5551 35.7171 17.2262 34.7351 17.2262C33.9152 17.2262 33.0572 17.7743 32.7093 18.6514C32.3613 19.5285 32.3946 20.9966 32.3946 21.9833V31.2022C32.3946 31.5501 32.1039 31.8314 31.7416 31.8314H28.3572C28.014 31.8075 27.7471 31.5358 27.7471 31.2022L27.7423 21.9833C27.7423 20.0433 28.0617 17.188 25.6545 17.188C23.2187 17.188 23.3141 19.9718 23.3141 21.9833V31.2022C23.3141 31.5501 23.0233 31.8314 22.661 31.8314Z" fill="black"/>
<path fill-rule="evenodd" clip-rule="evenodd" d="M85.3003 12.8694C90.3292 12.8694 93.051 17.188 93.051 22.6793C93.051 27.9846 90.0432 32.1936 85.3003 32.1936C80.362 32.1936 77.6736 27.875 77.6736 22.4934C77.6736 17.0784 80.3954 12.8694 85.3003 12.8694ZM85.3289 16.4206C82.8312 16.4206 82.6739 19.824 82.6739 21.9452C82.6739 24.0712 82.6405 28.6091 85.3003 28.6091C87.9268 28.6091 88.0507 24.9482 88.0507 22.7174C88.0507 21.2493 87.9888 19.4951 87.5454 18.1032C87.1641 16.8925 86.4062 16.4206 85.3289 16.4206Z" fill="black"/>
<path fill-rule="evenodd" clip-rule="evenodd" d="M99.572 31.8314H96.1972C95.8587 31.8075 95.587 31.5358 95.587 31.2022L95.5823 13.8037C95.6109 13.4843 95.8921 13.2364 96.2353 13.2364H99.3766C99.6721 13.2507 99.9152 13.4509 99.9819 13.7226V16.3825H100.044C100.992 14.0039 102.322 12.8694 104.663 12.8694C106.183 12.8694 107.666 13.4176 108.619 14.9191C109.506 16.311 109.506 18.6514 109.506 20.3341V31.2832C109.468 31.5883 109.186 31.8314 108.853 31.8314H105.454C105.144 31.8075 104.887 31.5787 104.854 31.2832V21.8356C104.854 19.9337 105.073 17.1499 102.732 17.1499C101.908 17.1499 101.15 17.7028 100.773 18.5418C100.297 19.6048 100.235 20.663 100.235 21.8356V31.2022C100.23 31.5501 99.9343 31.8314 99.572 31.8314Z" fill="black"/>
<path fill-rule="evenodd" clip-rule="evenodd" d="M54.4169 23.523C54.4169 24.8433 54.4503 25.9445 53.783 27.1171C53.2443 28.0704 52.3863 28.6567 51.4377 28.6567C50.1364 28.6567 49.3737 27.6652 49.3737 26.2019C49.3737 23.3132 51.9621 22.7889 54.4169 22.7889V23.523ZM57.8347 31.7837C57.6106 31.9839 57.2865 31.9982 57.0339 31.8647C55.9089 30.9304 55.7039 30.4967 55.089 29.6053C53.23 31.5024 51.9096 32.0697 49.5024 32.0697C46.6472 32.0697 44.4307 30.3108 44.4307 26.7882C44.4307 24.0378 45.9179 22.1644 48.0438 21.2492C49.8838 20.4389 52.453 20.2959 54.4169 20.0719V19.6333C54.4169 18.8277 54.4789 17.8744 54.0022 17.1785C53.5923 16.554 52.801 16.2966 52.1003 16.2966C50.8085 16.2966 49.6598 16.9592 49.3785 18.332C49.3213 18.6371 49.0973 18.9374 48.7874 18.9517L45.5032 18.5989C45.2267 18.537 44.9169 18.3129 44.9979 17.8887C45.751 13.9037 49.3547 12.7025 52.577 12.7025C54.2263 12.7025 56.3808 13.1411 57.6821 14.3899C59.3314 15.9296 59.1741 17.984 59.1741 20.2196V25.5012C59.1741 27.0885 59.8319 27.7844 60.4516 28.6424C60.6661 28.9475 60.7138 29.3145 60.4373 29.5433C59.7461 30.1201 58.5163 31.1926 57.8394 31.7932L57.8347 31.7837Z" fill="black"/>
<path fill-rule="evenodd" clip-rule="evenodd" d="M9.98627 23.523C9.98627 24.8433 10.0196 25.9444 9.35229 27.1171C8.81365 28.0704 7.96041 28.6567 7.00707 28.6567C5.70575 28.6567 4.94785 27.6652 4.94785 26.2018C4.94785 23.3132 7.53617 22.7889 9.98627 22.7889V23.523ZM13.404 31.7837C13.18 31.9839 12.8558 31.9982 12.6032 31.8647C11.4782 30.9304 11.278 30.4967 10.6584 29.6053C8.79935 31.5024 7.48374 32.0697 5.07178 32.0697C2.22129 32.0697 0 30.3108 0 26.7882C0 24.0378 1.49198 22.1644 3.61317 21.2492C5.45312 20.4389 8.02238 20.2959 9.98627 20.0719V19.6333C9.98627 18.8277 10.0482 17.8744 9.57633 17.1785C9.16162 16.554 8.37035 16.2966 7.67441 16.2966C6.38263 16.2966 5.22908 16.9592 4.94785 18.332C4.89065 18.6371 4.66661 18.9374 4.36154 18.9517L1.07251 18.5989C0.796041 18.537 0.490971 18.3129 0.567238 17.8887C1.32515 13.9037 4.92401 12.7025 8.14631 12.7025C9.79559 12.7025 11.9501 13.1411 13.2515 14.3899C14.9007 15.9296 14.7434 17.984 14.7434 20.2196V25.5011C14.7434 27.0885 15.4013 27.7844 16.0209 28.6424C16.2402 28.9475 16.2879 29.3145 16.0114 29.5433C15.3202 30.1201 14.0904 31.1926 13.4135 31.7932L13.404 31.7837Z" fill="black"/>
</svg>
