<svg width="117" height="49" viewBox="0 0 117 49" fill="none" xmlns="http://www.w3.org/2000/svg">
<path d="M27.2017 25.9569C27.1535 20.8951 31.337 18.4631 31.5252 18.3473C29.1705 14.9069 25.5129 14.434 24.21 14.3809C21.0977 14.0624 18.1349 16.2145 16.5522 16.2145C14.9695 16.2145 12.5327 14.4243 9.95119 14.4774C6.55415 14.5257 3.42252 16.451 1.67092 19.4909C-1.85157 25.5998 0.773412 34.6715 4.21387 39.6367C5.89791 42.0639 7.8956 44.7999 10.5302 44.6985C13.0683 44.5972 14.0238 43.0579 17.083 43.0579C20.1423 43.0579 21.006 44.6985 23.6841 44.6503C26.4104 44.5972 28.1378 42.1701 29.8074 39.7333C31.7279 36.9104 32.5241 34.1841 32.5723 34.0394C32.5096 34.0152 27.2596 32.0031 27.2017 25.9569Z" fill="black"/>
<path d="M22.1693 11.09C23.5687 9.39632 24.5096 7.04638 24.2539 4.70126C22.2417 4.78329 19.8049 6.04271 18.3622 7.7364C17.069 9.23226 15.935 11.6256 16.2438 13.9225C18.478 14.0962 20.7748 12.7789 22.1693 11.09ZM44.8484 30.9318L42.5322 37.9527H39.555L47.1356 15.6403H50.6098L58.2194 37.9527H55.1408L52.7571 30.9318H44.8484ZM52.1636 28.6784L49.9825 22.2559C49.4855 20.7986 49.1574 19.4765 48.8245 18.1833H48.7617C48.4288 19.5054 48.0669 20.8613 47.6374 22.2221L45.4564 28.6736L52.1636 28.6784ZM60.4776 27.1584C60.4776 25.1076 60.4149 23.4477 60.3425 21.9277H62.9578L63.0929 24.6782H63.1557C64.3475 22.7239 66.2342 21.5658 68.8496 21.5658C72.7243 21.5658 75.634 24.8422 75.634 29.711C75.634 35.4725 72.126 38.3146 68.3526 38.3146C66.2342 38.3146 64.3813 37.3881 63.4211 35.8006H63.3583V44.5055H60.4776V27.1584ZM63.3535 31.4288C63.3535 31.8631 63.4162 32.254 63.4886 32.6207C64.0194 34.6377 65.771 36.0322 67.8604 36.0322C70.9389 36.0322 72.7291 33.5182 72.7291 29.8413C72.7291 26.6276 71.0403 23.8868 67.9617 23.8868C65.9785 23.8868 64.1256 25.3103 63.5562 27.4962C63.4548 27.8581 63.3583 28.2924 63.3583 28.688L63.3535 31.4288ZM78.645 27.1584C78.645 25.1076 78.5823 23.4477 78.5099 21.9277H81.1252L81.2603 24.6782H81.323C82.5149 22.7239 84.4016 21.5658 87.0169 21.5658C90.8917 21.5658 93.8013 24.8422 93.8013 29.711C93.8013 35.4725 90.2933 38.3146 86.5199 38.3146C84.4016 38.3146 82.5487 37.3881 81.5884 35.8006H81.5257V44.5055H78.645V27.1584ZM81.5257 31.4288C81.5257 31.8631 81.5884 32.254 81.6608 32.6207C82.1916 34.6377 83.9432 36.0322 86.0326 36.0322C89.1111 36.0322 90.9013 33.5182 90.9013 29.8413C90.9013 26.6276 89.2124 23.8868 86.1339 23.8868C84.1507 23.8868 82.2978 25.3103 81.7284 27.4962C81.627 27.8581 81.5305 28.2924 81.5305 28.688L81.5257 31.4288ZM96.8172 14.4485H99.7317V37.9479H96.8172V14.4485ZM105.59 30.4686C105.652 34.4061 108.171 36.0322 111.081 36.0322C113.165 36.0322 114.425 35.6703 115.515 35.2071L116.012 37.2916C114.989 37.7549 113.233 38.2856 110.685 38.2856C105.754 38.2856 102.805 35.043 102.805 30.208C102.805 25.373 105.652 21.5658 110.318 21.5658C115.549 21.5658 116.939 26.1644 116.939 29.1127C116.939 29.711 116.876 30.1694 116.837 30.4686H105.59ZM114.13 28.384C114.164 26.5311 113.368 23.6504 110.092 23.6504C107.143 23.6504 105.855 26.367 105.623 28.384H114.13Z" fill="black"/>
<path d="M22.1693 11.09C23.5687 9.39632 24.5096 7.04638 24.2539 4.70126C22.2417 4.78329 19.8049 6.04271 18.3622 7.7364C17.069 9.23226 15.935 11.6256 16.2438 13.9225C18.478 14.0962 20.7748 12.7789 22.1693 11.09ZM44.8484 30.9318L42.5322 37.9527H39.555L47.1356 15.6403H50.6098L58.2194 37.9527H55.1408L52.7571 30.9318H44.8484ZM52.1636 28.6784L49.9825 22.2559C49.4855 20.7986 49.1574 19.4765 48.8245 18.1833H48.7617C48.4288 19.5054 48.0669 20.8613 47.6374 22.2221L45.4564 28.6736L52.1636 28.6784ZM60.4776 27.1584C60.4776 25.1076 60.4149 23.4477 60.3425 21.9277H62.9578L63.0929 24.6782H63.1557C64.3475 22.7239 66.2342 21.5658 68.8496 21.5658C72.7243 21.5658 75.634 24.8422 75.634 29.711C75.634 35.4725 72.126 38.3146 68.3526 38.3146C66.2342 38.3146 64.3813 37.3881 63.4211 35.8006H63.3583V44.5055H60.4776V27.1584ZM63.3535 31.4288C63.3535 31.8631 63.4162 32.254 63.4886 32.6207C64.0194 34.6377 65.771 36.0322 67.8604 36.0322C70.9389 36.0322 72.7291 33.5182 72.7291 29.8413C72.7291 26.6276 71.0403 23.8868 67.9617 23.8868C65.9785 23.8868 64.1256 25.3103 63.5562 27.4962C63.4548 27.8581 63.3583 28.2924 63.3583 28.688L63.3535 31.4288ZM78.645 27.1584C78.645 25.1076 78.5823 23.4477 78.5099 21.9277H81.1252L81.2603 24.6782H81.323C82.5149 22.7239 84.4016 21.5658 87.0169 21.5658C90.8917 21.5658 93.8013 24.8422 93.8013 29.711C93.8013 35.4725 90.2933 38.3146 86.5199 38.3146C84.4016 38.3146 82.5487 37.3881 81.5884 35.8006H81.5257V44.5055H78.645V27.1584ZM81.5257 31.4288C81.5257 31.8631 81.5884 32.254 81.6608 32.6207C82.1916 34.6377 83.9432 36.0322 86.0326 36.0322C89.1111 36.0322 90.9013 33.5182 90.9013 29.8413C90.9013 26.6276 89.2124 23.8868 86.1339 23.8868C84.1507 23.8868 82.2978 25.3103 81.7284 27.4962C81.627 27.8581 81.5305 28.2924 81.5305 28.688L81.5257 31.4288ZM96.8172 14.4485H99.7317V37.9479H96.8172V14.4485ZM105.59 30.4686C105.652 34.4061 108.171 36.0322 111.081 36.0322C113.165 36.0322 114.425 35.6703 115.515 35.2071L116.012 37.2916C114.989 37.7549 113.233 38.2856 110.685 38.2856C105.754 38.2856 102.805 35.043 102.805 30.208C102.805 25.373 105.652 21.5658 110.318 21.5658C115.549 21.5658 116.939 26.1644 116.939 29.1127C116.939 29.711 116.876 30.1694 116.837 30.4686H105.59ZM114.13 28.384C114.164 26.5311 113.368 23.6504 110.092 23.6504C107.143 23.6504 105.855 26.367 105.623 28.384H114.13Z" fill="black"/>
</svg>
