<svg width="113" height="49" viewBox="0 0 113 49" fill="none" xmlns="http://www.w3.org/2000/svg">
<path d="M48.2376 26.3526C48.2376 31.6759 44.0732 35.5985 38.9626 35.5985C33.852 35.5985 29.6876 31.6759 29.6876 26.3526C29.6876 20.9919 33.852 17.1068 38.9626 17.1068C44.0732 17.1068 48.2376 20.9919 48.2376 26.3526ZM44.1775 26.3526C44.1775 23.0261 41.7639 20.7501 38.9626 20.7501C36.1613 20.7501 33.7477 23.0261 33.7477 26.3526C33.7477 29.6458 36.1613 31.9552 38.9626 31.9552C41.7639 31.9552 44.1775 29.6416 44.1775 26.3526Z" fill="black"/>
<path d="M68.2468 26.3526C68.2468 31.6759 64.0824 35.5985 58.9718 35.5985C53.8612 35.5985 49.6968 31.6759 49.6968 26.3526C49.6968 20.9961 53.8612 17.1068 58.9718 17.1068C64.0824 17.1068 68.2468 20.9919 68.2468 26.3526ZM64.1867 26.3526C64.1867 23.0261 61.7731 20.7501 58.9718 20.7501C56.1705 20.7501 53.7569 23.0261 53.7569 26.3526C53.7569 29.6458 56.1705 31.9552 58.9718 31.9552C61.7731 31.9552 64.1867 29.6416 64.1867 26.3526Z" fill="black"/>
<path d="M87.4224 17.6654V34.2646C87.4224 41.0926 83.3956 43.8814 78.6351 43.8814C74.1539 43.8814 71.4569 40.8842 70.4398 38.4331L73.9747 36.9616C74.6041 38.4665 76.1465 40.2423 78.631 40.2423C81.6782 40.2423 83.5665 38.3622 83.5665 34.8231V33.4934H83.4248C82.516 34.6147 80.7652 35.5943 78.5559 35.5943C73.933 35.5943 69.6978 31.5675 69.6978 26.386C69.6978 21.167 73.933 17.1068 78.5559 17.1068C80.7611 17.1068 82.5119 18.0864 83.4248 19.1744H83.5665V17.6696H87.4224V17.6654ZM83.8541 26.386C83.8541 23.1304 81.6823 20.7501 78.9186 20.7501C76.1173 20.7501 73.7704 23.1304 73.7704 26.386C73.7704 29.6083 76.1173 31.9552 78.9186 31.9552C81.6823 31.9552 83.8541 29.6083 83.8541 26.386Z" fill="black"/>
<path d="M93.779 7.9361V35.0317H89.8188V7.9361H93.779Z" fill="black"/>
<path d="M109.211 29.3957L112.363 31.4967C111.346 33.0015 108.895 35.5943 104.659 35.5943C99.407 35.5943 95.4844 31.5342 95.4844 26.3485C95.4844 20.8502 99.4403 17.1027 104.205 17.1027C109.003 17.1027 111.35 20.921 112.117 22.9845L112.538 24.035L100.178 29.1539C101.124 31.0089 102.596 31.9552 104.659 31.9552C106.727 31.9552 108.161 30.9381 109.211 29.3957ZM99.5112 26.0692L107.773 22.6385C107.319 21.4838 105.952 20.6793 104.343 20.6793C102.279 20.6793 99.407 22.5009 99.5112 26.0692Z" fill="black"/>
<path d="M14.6975 23.9473V20.0247H27.9159C28.0451 20.7083 28.1118 21.517 28.1118 22.3924C28.1118 25.3354 27.3073 28.9745 24.7145 31.5674C22.1925 34.1935 18.9702 35.5942 14.7016 35.5942C6.78972 35.5942 0.136719 29.1496 0.136719 21.2377C0.136719 13.3258 6.78972 6.88123 14.7016 6.88123C19.0786 6.88123 22.1967 8.59867 24.5394 10.8372L21.7715 13.6051C20.0916 12.0294 17.8155 10.8038 14.6975 10.8038C8.91985 10.8038 4.40114 15.4601 4.40114 21.2377C4.40114 27.0153 8.91985 31.6716 14.6975 31.6716C18.445 31.6716 20.5793 30.1667 21.9466 28.7994C23.0554 27.6906 23.7849 26.1066 24.0725 23.9431L14.6975 23.9473Z" fill="black"/>
</svg>
