<svg width="164" height="49" viewBox="0 0 164 49" fill="none" xmlns="http://www.w3.org/2000/svg">
<path d="M163.858 22.5364V19.6547H160.279V15.1748L160.159 15.2119L156.798 16.2403L156.731 16.2604V19.6548H151.426V17.7638C151.426 16.8833 151.623 16.2095 152.011 15.7601C152.396 15.3161 152.948 15.0904 153.65 15.0904C154.156 15.0904 154.679 15.2095 155.206 15.4442L155.338 15.5032V12.4684L155.276 12.4456C154.784 12.269 154.116 12.1801 153.288 12.1801C152.244 12.1801 151.296 12.4072 150.469 12.8574C149.641 13.3082 148.99 13.9517 148.534 14.7699C148.08 15.5872 147.849 16.5311 147.849 17.5757V19.6547H145.357V22.5364H147.849V34.6764H151.426V22.5364H156.731V30.2512C156.731 33.4285 158.23 35.0386 161.186 35.0386C161.671 35.0386 162.183 34.9817 162.704 34.8703C163.236 34.7558 163.598 34.6415 163.811 34.5195L163.858 34.4916V31.5833L163.712 31.6795C163.518 31.8088 163.276 31.9145 162.993 31.9932C162.708 32.0732 162.471 32.1133 162.286 32.1133C161.594 32.1133 161.082 31.9268 160.764 31.5585C160.442 31.187 160.279 30.5373 160.279 29.6284V22.5364H163.858ZM137.369 32.1138C136.071 32.1138 135.047 31.6833 134.326 30.8353C133.6 29.983 133.232 28.7678 133.232 27.224C133.232 25.6311 133.6 24.3844 134.326 23.5171C135.048 22.6554 136.062 22.2181 137.34 22.2181C138.58 22.2181 139.568 22.6358 140.275 23.4602C140.986 24.2889 141.346 25.5255 141.346 27.1369C141.346 28.7682 141.007 30.0212 140.338 30.8594C139.674 31.6912 138.675 32.1138 137.369 32.1138ZM137.528 19.2928C135.051 19.2928 133.084 20.0186 131.681 21.4501C130.279 22.8818 129.568 24.863 129.568 27.3392C129.568 29.6911 130.262 31.5829 131.631 32.9612C132.999 34.3399 134.862 35.0383 137.166 35.0383C139.567 35.0383 141.495 34.3023 142.897 32.851C144.299 31.4013 145.01 29.4388 145.01 27.0204C145.01 24.6317 144.343 22.7258 143.028 21.3568C141.712 19.9871 139.862 19.2928 137.528 19.2928ZM123.801 19.2928C122.116 19.2928 120.722 19.7238 119.658 20.5736C118.586 21.4284 118.043 22.5495 118.043 23.9062C118.043 24.6114 118.16 25.2378 118.391 25.7692C118.623 26.3022 118.983 26.7716 119.46 27.1655C119.934 27.5562 120.665 27.9655 121.634 28.3819C122.449 28.7171 123.057 29.0007 123.443 29.2242C123.82 29.4432 124.088 29.6634 124.239 29.8779C124.386 30.0877 124.46 30.375 124.46 30.7294C124.46 31.7386 123.704 32.2297 122.149 32.2297C121.572 32.2297 120.915 32.1092 120.194 31.8717C119.478 31.6379 118.803 31.2954 118.191 30.8563L118.043 30.7498V34.1937L118.097 34.2191C118.603 34.4527 119.241 34.6498 119.994 34.8048C120.744 34.96 121.426 35.0389 122.019 35.0389C123.847 35.0389 125.32 34.6059 126.394 33.751C127.475 32.8903 128.023 31.7427 128.023 30.3391C128.023 29.3266 127.728 28.4583 127.147 27.758C126.569 27.0634 125.567 26.4257 124.169 25.8621C123.055 25.4151 122.342 25.044 122.048 24.7591C121.764 24.484 121.62 24.0948 121.62 23.602C121.62 23.1652 121.798 22.8152 122.163 22.5318C122.531 22.2469 123.043 22.1021 123.685 22.1021C124.281 22.1021 124.891 22.1962 125.497 22.3807C126.103 22.5652 126.636 22.8123 127.08 23.1146L127.226 23.2145V19.9476L127.17 19.9235C126.76 19.7477 126.219 19.5973 125.563 19.4753C124.909 19.354 124.317 19.2928 123.801 19.2928ZM108.718 32.1138C107.42 32.1138 106.396 31.6833 105.675 30.8353C104.949 29.983 104.581 28.7681 104.581 27.224C104.581 25.6311 104.949 24.3844 105.675 23.5171C106.397 22.6554 107.41 22.2181 108.689 22.2181C109.929 22.2181 110.916 22.6358 111.624 23.4602C112.335 24.2889 112.695 25.5255 112.695 27.1369C112.695 28.7682 112.356 30.0212 111.687 30.8594C111.023 31.6912 110.024 32.1138 108.718 32.1138ZM108.877 19.2928C106.4 19.2928 104.432 20.0186 103.03 21.4501C101.628 22.8818 100.917 24.863 100.917 27.3392C100.917 29.6921 101.611 31.5829 102.98 32.9612C104.348 34.3399 106.211 35.0383 108.515 35.0383C110.916 35.0383 112.844 34.3023 114.247 32.851C115.648 31.4013 116.359 29.4388 116.359 27.0204C116.359 24.6317 115.692 22.7258 114.377 21.3568C113.061 19.9871 111.21 19.2928 108.877 19.2928ZM95.487 22.2561V19.6547H91.9536V34.6761H95.487V26.9921C95.487 25.6855 95.7833 24.6121 96.3679 23.8013C96.945 23.0002 97.7141 22.5942 98.6531 22.5942C98.9714 22.5942 99.3287 22.6467 99.7156 22.7505C100.099 22.8537 100.376 22.9658 100.54 23.0837L100.688 23.1913V19.629L100.631 19.6044C100.302 19.4646 99.8362 19.3941 99.2472 19.3941C98.3592 19.3941 97.5646 19.6794 96.884 20.2412C96.2866 20.7349 95.8548 21.4119 95.5246 22.2561H95.487ZM85.6258 19.2928C84.0047 19.2928 82.5588 19.6404 81.3289 20.3257C80.0965 21.0125 79.1434 21.993 78.4949 23.2398C77.8493 24.4837 77.5215 25.9366 77.5215 27.5568C77.5215 28.9761 77.8393 30.2786 78.4675 31.4265C79.096 32.5763 79.9855 33.4759 81.1116 34.0997C82.2361 34.7228 83.5357 35.0388 84.9746 35.0388C86.6538 35.0388 88.0876 34.703 89.2371 34.0409L89.2835 34.0143V30.7771L89.135 30.8855C88.6143 31.2648 88.0324 31.5676 87.4063 31.7857C86.7818 32.0036 86.2124 32.1138 85.7131 32.1138C84.3266 32.1138 83.2136 31.68 82.4057 30.8246C81.596 29.9682 81.1855 28.7656 81.1855 27.2523C81.1855 25.7295 81.6136 24.496 82.4573 23.5859C83.2985 22.6784 84.4136 22.2181 85.7714 22.2181C86.9328 22.2181 88.0646 22.6114 89.1353 23.388L89.2835 23.4957V20.0847L89.2356 20.0578C88.8327 19.8322 88.2832 19.646 87.6009 19.5047C86.9216 19.3638 86.2571 19.2928 85.6258 19.2928ZM75.088 19.6548H71.5545V34.6761H75.088V19.6548ZM73.3574 13.2557C72.7758 13.2557 72.2686 13.4537 71.8518 13.846C71.4334 14.2394 71.2211 14.7347 71.2211 15.3193C71.2211 15.8947 71.4308 16.381 71.8453 16.764C72.2571 17.1458 72.766 17.3394 73.3575 17.3394C73.9489 17.3394 74.4596 17.1458 74.8763 16.7646C75.2958 16.381 75.5085 15.8949 75.5085 15.3193C75.5085 14.7552 75.3015 14.2649 74.8936 13.8618C74.4861 13.4595 73.969 13.2557 73.3574 13.2557ZM64.5411 18.5466V34.6761H68.1472V13.7155H63.1562L56.8124 29.2844L50.6561 13.7155H45.4619V34.6759H48.8507V18.545H48.967L55.4679 34.6761H58.0253L64.4248 18.5466H64.5411Z" fill="black"/>
<path d="M16.6225 23.3338H0V6.7113H16.6225V23.3338Z" fill="black"/>
<path d="M34.9757 23.3338H18.3535V6.7113H34.9757V23.3338Z" fill="black"/>
<path d="M16.622 41.6935H0V25.0712H16.622V41.6935Z" fill="black"/>
<path d="M34.9757 41.6935H18.3535V25.0712H34.9757V41.6935Z" fill="black"/>
</svg>
