<svg width="111" height="49" viewBox="0 0 111 49" fill="none" xmlns="http://www.w3.org/2000/svg">
<g clip-path="url(#clip0_1_260)">
<path d="M15.2636 38.7688C13.5938 39.062 11.8945 39.1499 10.1368 39.3841L4.77531 23.6811V40.0581C3.10546 40.2338 1.58205 40.4681 0 40.7025V10.7025H4.45325L10.5469 27.7243V10.7025H15.2636V38.7688ZM24.4922 21.6888C26.3087 21.6888 29.0919 21.6009 30.7618 21.6009V26.2883C28.6816 26.2883 26.2501 26.2883 24.4922 26.3762V33.349C27.2462 33.1733 30.0001 32.9387 32.7832 32.8508V37.3623L19.8046 38.3879V10.7025H32.7832V15.39H24.4922V21.6888ZM50.2148 15.3901H45.3516V36.9526C43.7695 36.9526 42.1875 36.9526 40.6643 37.011V15.3901H35.801V10.7025H50.215L50.2148 15.3901ZM57.8319 21.3667H64.248V26.0541H57.8319V36.689H53.232V10.7025H66.3281V15.39H57.8319V21.3667ZM73.9452 32.5873C76.6113 32.6457 79.3065 32.8511 81.914 32.9974V37.6263C77.7246 37.3625 73.5351 37.0992 69.2578 37.011V10.7025H73.9452V32.5873ZM85.869 37.9486C87.3632 38.0366 88.9452 38.1246 90.4686 38.3001V10.7025H85.869V37.9486ZM111.006 10.7025L105.059 24.9701L111.006 40.7025C109.248 40.4681 107.49 40.1459 105.732 39.8528L102.363 31.1812L98.9359 39.15C97.2363 38.8567 95.5957 38.7688 93.8968 38.5344L99.9319 24.7942L94.4825 10.7025H99.5214L102.598 18.5834L105.879 10.7025H111.006V10.7025Z" fill="black"/>
</g>
<defs>
<clipPath id="clip0_1_260">
<rect width="111" height="48" fill="white" transform="translate(0 0.702515)"/>
</clipPath>
</defs>
</svg>
