<svg width="135" height="49" viewBox="0 0 135 49" fill="none" xmlns="http://www.w3.org/2000/svg">
<path d="M96.2035 21.0353C94.2175 21.0353 92.8001 21.7137 92.1044 22.9983L91.7306 23.694V21.3701H88.4989V35.4949H91.898V27.0916C91.898 25.0839 92.9892 23.9321 94.8901 23.9321C96.7029 23.9321 97.7422 25.0536 97.7422 27.0079V35.4949H101.143V26.4017C101.143 23.0387 99.2967 21.0353 96.2035 21.0353ZM79.7189 21.0353C75.7078 21.0353 73.2238 23.5381 73.2238 27.5665V29.5497C73.2238 33.4236 75.7367 35.8297 79.7824 35.8297C82.4887 35.8297 84.3853 34.8381 85.579 32.7987L83.4717 31.5862C82.5898 32.7626 81.1811 33.4915 79.7839 33.4915C77.7358 33.4915 76.5132 32.2271 76.5132 30.1082V29.5468H86.0004V27.2042C86.0004 23.4515 83.5366 21.0353 79.7218 21.0353H79.7189ZM82.9073 27.2634H76.5017V26.9242C76.5017 24.5989 77.6434 23.3158 79.716 23.3158C81.7122 23.3158 82.9044 24.5802 82.9044 26.699L82.9073 27.2634ZM134.9 19.0449V16.3429H123.142V19.0449H127.265V32.7871H123.142V35.4891H134.9V32.7871H130.776V19.0449H134.9ZM45.7495 15.9532C40.4985 15.9532 37.2337 19.2253 37.2337 24.495V27.3442C37.2337 32.6125 40.4971 35.886 45.7495 35.886C51.0019 35.886 54.2653 32.6125 54.2653 27.3442V24.495C54.2639 19.2195 50.9961 15.9532 45.7495 15.9532ZM50.7522 27.5391C50.7522 31.0378 48.9292 33.044 45.7495 33.044C42.5698 33.044 40.7482 31.0378 40.7482 27.5391V24.2987C40.7482 20.8 42.5727 18.7938 45.7509 18.7938C48.9292 18.7938 50.7536 20.8 50.7536 24.2987L50.7522 27.5391ZM64.9418 21.0353C63.1578 21.0353 61.6134 21.7743 60.8081 23.0112L60.4429 23.5742V21.3701H57.2098V40.3547H60.6103V33.4785L60.974 34.0183C61.739 35.1528 63.2329 35.8297 64.9707 35.8297C67.9022 35.8297 70.8596 33.9144 70.8596 29.6334V27.2316C70.8596 24.1472 69.0366 21.0353 64.9418 21.0353ZM67.459 29.4674C67.459 31.7436 66.1312 33.1581 63.995 33.1581C62.0032 33.1581 60.6132 31.6627 60.6132 29.5237V27.3991C60.6132 25.234 62.0147 23.7098 64.0239 23.7098C66.1441 23.7098 67.4619 25.1229 67.4619 27.3991L67.459 29.4674ZM110.539 16.3444L103.679 35.4949H107.133L108.446 31.3899H116.333L116.346 31.4304L117.645 35.4949H121.097L114.225 16.3429L110.539 16.3444ZM109.289 28.6894L112.384 19.0074L115.446 28.6894H109.289ZM30.5856 21.6906C30.9577 20.5734 31.0869 19.3895 30.9644 18.2183C30.842 17.0471 30.4707 15.9156 29.8754 14.8996C28.9918 13.364 27.6437 12.1483 26.0253 11.4275C24.4068 10.7067 22.6014 10.518 20.8689 10.8885C20.0875 10.0072 19.1268 9.30305 18.0512 8.82313C16.9756 8.34321 15.8099 8.0986 14.6321 8.10568C12.8601 8.10164 11.1326 8.66059 9.69881 9.70188C8.26502 10.7432 7.19905 12.213 6.65466 13.8993C5.50103 14.136 4.41122 14.6162 3.45812 15.308C2.50503 15.9997 1.71063 16.887 1.12804 17.9104C0.239751 19.4435 -0.139201 21.2189 0.0457313 22.9811C0.230663 24.7433 0.969941 26.4013 2.15716 27.7166C1.78642 28.8328 1.658 30.0153 1.78045 31.1851C1.90291 32.3549 2.27343 33.4851 2.86729 34.5004C3.75007 36.039 5.09876 37.2574 6.71881 37.9798C8.33886 38.7023 10.1465 38.8915 11.8811 38.5201C12.6618 39.4003 13.6213 40.1039 14.6956 40.5837C15.7698 41.0636 16.9341 41.3088 18.1106 41.3029C19.8826 41.307 21.6101 40.748 23.0439 39.7067C24.4777 38.6654 25.5437 37.1956 26.088 35.5093C27.2415 35.2725 28.331 34.7922 29.2839 34.1005C30.2367 33.4088 31.0309 32.5216 31.6132 31.4982C32.5038 29.9656 32.8842 28.1896 32.6995 26.4267C32.5148 24.6638 31.7745 23.0053 30.5856 21.6906ZM18.1106 39.1379C16.6554 39.1392 15.2461 38.6282 14.1298 37.6945C14.1789 37.6671 14.2742 37.6195 14.329 37.5834L20.9396 33.7672C21.1054 33.673 21.2432 33.5362 21.3385 33.3711C21.4339 33.2059 21.4836 33.0183 21.4823 32.8275V23.5063L24.2752 25.1186C24.2903 25.1257 24.3033 25.1366 24.3129 25.1503C24.3225 25.164 24.3284 25.1799 24.33 25.1965V32.9112C24.33 34.5614 23.675 36.1441 22.5088 37.3116C21.3427 38.4791 19.7608 39.136 18.1106 39.1379ZM4.74654 33.4309C4.01781 32.1715 3.75471 30.6961 4.00321 29.2624C4.05229 29.2927 4.13889 29.3447 4.19951 29.3793L10.8115 33.197C10.9761 33.2934 11.1635 33.3443 11.3542 33.3443C11.545 33.3443 11.7323 33.2934 11.8969 33.197L19.9639 28.5321V31.7566C19.9654 31.7731 19.9626 31.7898 19.9558 31.805C19.9489 31.8201 19.9383 31.8333 19.9249 31.8432L13.2422 35.6998C11.8133 36.5226 10.1164 36.745 8.52374 36.3182C6.93109 35.8915 5.5727 34.8506 4.74654 33.4236V33.4309ZM3.01451 18.9973C3.73983 17.736 4.88595 16.7702 6.25197 16.2693V24.127C6.25099 24.3176 6.30074 24.5051 6.39611 24.6703C6.49147 24.8354 6.62902 24.9722 6.79467 25.0666L14.863 29.7258L12.06 31.3438C12.0464 31.353 12.0306 31.3586 12.0142 31.3601C11.9978 31.3616 11.9813 31.359 11.9662 31.3524L5.28492 27.4943C3.85732 26.6684 2.8158 25.3098 2.38904 23.7167C1.96228 22.1236 2.18516 20.4262 3.00874 18.9973H3.01451ZM25.9639 24.3377L17.8955 19.6785L20.6856 18.0649C20.6993 18.0558 20.715 18.0502 20.7314 18.0487C20.7477 18.0472 20.7642 18.0498 20.7794 18.0562L27.4607 21.9143C28.484 22.5056 29.3178 23.3762 29.8643 24.4241C30.4108 25.472 30.6475 26.654 30.5466 27.8315C30.4458 29.0091 30.0115 30.1336 29.2948 31.0733C28.578 32.0131 27.6084 32.7292 26.4994 33.1379V25.2817C26.5016 25.0905 26.4527 24.9022 26.3578 24.7363C26.2629 24.5704 26.1254 24.4328 25.9596 24.3377H25.9639ZM28.7453 20.152C28.6962 20.1216 28.6096 20.0697 28.549 20.035L21.9369 16.2174C21.7723 16.1209 21.585 16.0701 21.3942 16.0701C21.2035 16.0701 21.0162 16.1209 20.8515 16.2174L12.7832 20.8751V17.6521C12.7826 17.6355 12.786 17.619 12.793 17.6039C12.8 17.5889 12.8105 17.5757 12.8236 17.5655L19.5049 13.7088C20.5286 13.1187 21.6992 12.8323 22.8798 12.8833C24.0603 12.9342 25.2019 13.3203 26.171 13.9964C27.1401 14.6725 27.8966 15.6106 28.352 16.701C28.8074 17.7914 28.9428 18.9889 28.7424 20.1534L28.7453 20.152ZM11.2604 25.9023L8.46608 24.2901C8.45173 24.2821 8.43942 24.2709 8.43015 24.2574C8.42088 24.2439 8.4149 24.2284 8.41267 24.2121V16.4974C8.41178 15.3149 8.74796 14.1568 9.38182 13.1586C10.0157 12.1604 10.9209 11.3636 11.9915 10.8616C13.062 10.3596 14.2535 10.1731 15.4263 10.3241C16.599 10.4751 17.7044 10.9573 18.6129 11.7141C18.5638 11.7415 18.4758 11.7891 18.4137 11.8252L11.8031 15.6415C11.6375 15.7359 11.4999 15.8727 11.4046 16.0378C11.3092 16.2029 11.2594 16.3904 11.2604 16.5811V25.9023ZM12.7774 22.6302L16.3714 20.5547L19.9639 22.6302V26.7784L16.3699 28.854L12.7759 26.7784L12.7774 22.6302Z" fill="black"/>
</svg>
