<svg width="211" height="49" viewBox="0 0 211 49" fill="none" xmlns="http://www.w3.org/2000/svg">
<g clip-path="url(#clip0_1_132)">
<path d="M49.363 18.3015H31.5634L30.9276 18.8101V34.639H35.8225V28.6634L36.2674 28.2185H49.3628C52.6683 28.2185 54.1941 27.3286 54.1941 25.0401V21.4166C54.1943 19.1915 52.6685 18.3015 49.363 18.3015ZM49.363 24.1499C49.363 25.2305 48.6636 25.4212 47.0744 25.4212H36.3311L35.8225 24.9763V21.6071L36.2674 21.1622H47.0742C48.6 21.1622 49.3627 21.3529 49.3627 22.4335L49.363 24.1499ZM63.2211 21.2892L67.4803 27.519L67.226 28.0912H57.8177L55.402 31.079H69.3873L70.4044 31.6511L72.5658 34.6389H78.2235L65.8275 18.1108L63.2211 21.2892ZM119.353 31.4604V27.0106L119.862 26.5655H129.334V23.7684H114.331V34.6389H136.453V31.8418H119.925L119.353 31.4604ZM114.331 18.3015H136.644V21.3529H114.331V18.3015ZM89.4754 21.2257H107.466C107.211 18.9372 105.749 18.3015 102.189 18.3015H89.2847C85.2163 18.3015 83.9449 19.0644 83.9449 22.1792V30.8247C83.9449 33.8761 85.2163 34.7025 89.2847 34.7025H102.189C105.813 34.7025 107.211 34.0032 107.338 31.6511H89.4754L88.9668 31.1425V21.6071L89.4754 21.2257ZM18.8495 24.6585H5.81772L5.43628 24.2136V21.4165L5.81772 21.0987H23.4265L23.6808 20.5265C23.1086 19.0008 21.5194 18.2381 18.6587 18.2381H6.3898C2.32139 18.2381 1.04997 19.0009 1.04997 22.1157V23.9592C1.04997 27.0107 2.32139 27.8371 6.3898 27.8371H19.4216L19.803 28.2184V31.1426L19.4852 31.5876H0.668534C0.668534 31.5876 0.223633 31.8418 0.223633 31.9054C0.541443 34.0668 2.00357 34.6389 5.49983 34.6389H18.8496C22.918 34.6389 24.253 33.8761 24.253 30.7612V28.5362C24.2529 25.4849 22.918 24.6585 18.8495 24.6585ZM150.693 18.238H143.319L142.937 19.0008L151.074 24.9764C152.6 24.0863 154.316 23.1964 156.096 22.3064L150.693 18.238ZM157.304 29.4262L164.488 34.6389H171.862L172.179 33.9396L161.5 26.1205C160.101 27.2011 158.639 28.2819 157.304 29.4262Z" fill="black"/>
<path d="M149.613 34.6389H142.938L142.366 33.7488C146.879 29.3626 167.094 10.6732 211.021 8.70251C211.021 8.70251 174.214 9.97383 149.613 34.6389Z" fill="black"/>
</g>
<defs>
<clipPath id="clip0_1_132">
<rect width="211" height="48" fill="white" transform="translate(0 0.702515)"/>
</clipPath>
</defs>
</svg>
