<svg width="153" height="49" viewBox="0 0 153 49" fill="none" xmlns="http://www.w3.org/2000/svg">
<g clip-path="url(#clip0_1_171)">
<path d="M131.031 23.6388V35.6909H134.883V27.6562H148.972V35.6909H152.824V23.6388H131.031ZM134.443 19.7316H149.302C151.393 19.3463 152.879 17.4753 153.319 15.7142H130.426C130.866 17.4753 132.407 19.2913 134.443 19.7316ZM119.309 35.6909C121.235 34.8654 122.281 33.4345 122.721 31.7836H105.386V15.7693H101.479V35.6909H119.309ZM72.5872 19.6765H86.3452C88.4364 19.0712 90.1424 17.4753 90.5827 15.7693H68.79V27.5461H86.6204V31.6735H72.6423C70.441 32.2789 68.5699 33.7647 67.6343 35.6909H90.4726V23.6388H72.6423L72.5872 19.6765ZM38.6875 19.7316H53.5462C55.6374 19.3463 57.1783 17.4753 57.5635 15.7142H34.6151C35.0554 17.4753 36.5963 19.2913 38.6875 19.7316ZM38.6875 27.6012H53.5462C55.6374 27.2159 57.1783 25.3448 57.5635 23.5838H34.6151C35.0554 25.3448 36.5963 27.1609 38.6875 27.6012ZM38.6875 35.6909H53.5462C55.6374 35.3056 57.1783 33.4345 57.5635 31.6735H34.6151C35.0554 33.4345 36.5963 35.3056 38.6875 35.6909Z" fill="black"/>
<path d="M0 15.7693C0.440256 17.5303 1.98115 19.2913 4.01734 19.7316H10.291L10.6212 19.8416V35.6358H14.5285V19.8416L14.8586 19.7316H21.1323C23.2235 19.1813 24.7094 17.5303 25.1496 15.7693V15.7142L0 15.7693Z" fill="black"/>
</g>
<defs>
<clipPath id="clip0_1_171">
<rect width="153" height="48" fill="white" transform="translate(0 0.702515)"/>
</clipPath>
</defs>
</svg>
