<svg width="140" height="49" viewBox="0 0 140 49" fill="none" xmlns="http://www.w3.org/2000/svg">
<g clip-path="url(#clip0_1_140)">
<path d="M21.0727 3.78162C9.4747 3.78162 0.0722656 13.1838 0.0722656 24.7817C0.0722656 36.3802 9.4747 45.7816 21.0727 45.7816C32.6719 45.7816 42.0733 36.3802 42.0733 24.7817C42.0733 13.1846 32.6719 3.78262 21.0724 3.78262L21.0727 3.78162ZM30.7033 34.0698C30.3271 34.6867 29.5196 34.8823 28.9028 34.5037C23.9721 31.4919 17.765 30.8098 10.455 32.4799C9.75055 32.6404 9.04839 32.1991 8.8879 31.4944C8.72665 30.7897 9.16625 30.0876 9.87243 29.9271C17.872 28.0995 24.7339 28.8864 30.2695 32.2693C30.8864 32.6479 31.082 33.4529 30.7033 34.0698ZM33.2737 28.3517C32.7997 29.1221 31.7916 29.3653 31.0218 28.8914C25.3769 25.4217 16.7722 24.4169 10.0954 26.4436C9.22945 26.7052 8.31489 26.2172 8.05208 25.3527C7.79127 24.4868 8.27953 23.574 9.14394 23.3107C16.7707 20.9966 26.2521 22.1175 32.7345 26.1011C33.5044 26.575 33.7477 27.5831 33.2737 28.352V28.3517ZM33.4944 22.3974C26.726 18.3773 15.5592 18.0076 9.09704 19.9689C8.05935 20.2837 6.96197 19.6978 6.6475 18.6602C6.33303 17.622 6.91834 16.5253 7.95678 16.2099C15.3749 13.9579 27.7066 14.393 35.4991 19.019C36.4344 19.573 36.7404 20.7784 36.1862 21.7105C35.6345 22.6439 34.4257 22.9516 33.4954 22.3974H33.4944ZM57.2074 23.1678C53.5812 22.3031 52.9367 21.6962 52.9367 20.4211C52.9367 19.2164 54.0702 18.4056 55.7579 18.4056C57.3929 18.4056 59.0129 19.0213 60.7132 20.2887C60.7633 20.327 60.8285 20.3423 60.8912 20.3323C60.9564 20.3228 61.0116 20.2879 61.0492 20.2355L62.8196 17.7398C62.8924 17.637 62.8723 17.4953 62.7745 17.4168C60.7508 15.7936 58.4738 15.0044 55.8106 15.0044C51.896 15.0044 49.1601 17.3539 49.1601 20.7155C49.1601 24.3203 51.5199 25.5968 55.5974 26.582C59.0656 27.3812 59.6524 28.0508 59.6524 29.2475C59.6524 30.5741 58.4687 31.3991 56.5629 31.3991C54.4464 31.3991 52.7185 30.6844 50.7876 29.0143C50.74 28.9716 50.6748 28.9541 50.6146 28.9566C50.5494 28.9616 50.4917 28.9917 50.4516 29.0393L48.4655 31.4016C48.3827 31.5019 48.3927 31.6474 48.488 31.7326C50.7349 33.7388 53.4984 34.7971 56.4826 34.7971C60.7006 34.7971 63.4265 32.4925 63.4265 28.924C63.434 25.913 61.631 24.2453 57.2149 23.171L57.2074 23.1678ZM72.9709 19.5918C71.1428 19.5918 69.6431 20.312 68.4043 21.7878V20.1267C68.4043 19.9955 68.299 19.8887 68.1686 19.8887H64.9211C64.7907 19.8887 64.6854 19.9955 64.6854 20.1267V38.5837C64.6854 38.7141 64.7907 38.822 64.9211 38.822H68.1686C68.299 38.822 68.4043 38.7141 68.4043 38.5837V32.7583C69.6431 34.1451 71.1428 34.8246 72.9709 34.8246C76.3688 34.8246 79.8094 32.2091 79.8094 27.209C79.8144 22.2078 76.3739 19.5915 72.9734 19.5915L72.9709 19.5918ZM76.0328 27.209C76.0328 29.754 74.4655 31.532 72.2186 31.532C69.9992 31.532 68.3241 29.6738 68.3241 27.209C68.3241 24.7439 69.9992 22.8862 72.2186 22.8862C74.4279 22.8859 76.0328 24.7035 76.0328 27.2087V27.209ZM88.6241 19.5918C84.2481 19.5918 80.82 22.9611 80.82 27.2634C80.82 31.5195 84.2255 34.8522 88.5714 34.8522C92.9624 34.8522 96.4005 31.4944 96.4005 27.209C96.4005 22.9381 92.985 19.5923 88.6241 19.5923V19.5918ZM88.6241 31.5571C86.2969 31.5571 84.5415 29.6863 84.5415 27.2077C84.5415 24.7178 86.2367 22.911 88.5714 22.911C90.9136 22.911 92.679 24.781 92.679 27.2621C92.679 29.7515 90.9738 31.5571 88.6241 31.5571ZM105.744 19.8887H102.171V16.2359C102.171 16.105 102.065 15.9982 101.935 15.9982H98.6875C98.5571 15.9982 98.4493 16.105 98.4493 16.2359V19.8887H96.8895C96.7591 19.8887 96.6538 19.9955 96.6538 20.1267V22.917C96.6538 23.0479 96.7591 23.155 96.8895 23.155H98.4493V30.376C98.4493 33.2924 99.9013 34.772 102.768 34.772C103.931 34.772 104.897 34.5312 105.807 34.0147C105.882 33.9745 105.927 33.8943 105.927 33.809V31.1508C105.927 31.0706 105.885 30.9929 105.814 30.9502C105.744 30.9051 105.656 30.9026 105.584 30.9402C104.959 31.2537 104.355 31.3991 103.678 31.3991C102.637 31.3991 102.171 30.9251 102.171 29.8669V23.1562H105.744C105.875 23.1562 105.98 23.0494 105.98 22.9183V20.1282C105.985 19.997 105.88 19.8902 105.747 19.8902L105.744 19.8887ZM118.193 19.903V19.4543C118.193 18.1345 118.699 17.546 119.833 17.546C120.51 17.546 121.054 17.6804 121.663 17.8835C121.738 17.9071 121.816 17.8953 121.876 17.8504C121.939 17.8055 121.974 17.7336 121.974 17.6573V14.9214C121.974 14.8168 121.909 14.7243 121.806 14.6934C121.164 14.5021 120.342 14.3058 119.108 14.3058C116.111 14.3058 114.524 15.9944 114.524 19.1875V19.8746H112.964C112.834 19.8746 112.726 19.9815 112.726 20.1124V22.917C112.726 23.0479 112.834 23.155 112.964 23.155H114.524V34.2905C114.524 34.4234 114.632 34.5287 114.762 34.5287H118.007C118.14 34.5287 118.245 34.4234 118.245 34.2905V23.1557H121.277L125.921 34.2905C125.395 35.4591 124.876 35.6923 124.168 35.6923C123.597 35.6923 122.992 35.5218 122.378 35.1833C122.32 35.1532 122.25 35.1481 122.19 35.1657C122.127 35.1883 122.075 35.2334 122.049 35.2936L120.949 37.7085C120.896 37.8239 120.941 37.9568 121.051 38.017C122.2 38.6389 123.236 38.9047 124.517 38.9047C126.914 38.9047 128.241 37.7863 129.407 34.782L135.039 20.228C135.07 20.1548 135.059 20.072 135.014 20.007C134.972 19.9426 134.899 19.9037 134.821 19.9037H131.441C131.338 19.9037 131.248 19.9682 131.215 20.0632L127.752 29.9522L123.96 20.0567C123.925 19.9647 123.837 19.9037 123.74 19.9037H118.193V19.903ZM110.975 19.8887H107.728C107.597 19.8887 107.49 19.9955 107.49 20.1267V34.2905C107.49 34.4234 107.597 34.5287 107.728 34.5287H110.975C111.106 34.5287 111.214 34.4234 111.214 34.2905V20.1277C111.214 19.9965 111.108 19.8897 110.975 19.8897V19.8887ZM109.37 13.4391C108.084 13.4391 107.041 14.4803 107.041 15.7665C107.041 17.0535 108.084 18.0959 109.37 18.0959C110.657 18.0959 111.698 17.0535 111.698 15.7665C111.698 14.4805 110.654 13.4391 109.37 13.4391ZM137.813 24.4429C136.529 24.4429 135.528 23.411 135.528 22.1579C135.528 20.9048 136.542 19.8611 137.826 19.8611C139.109 19.8611 140.11 20.8928 140.11 22.1449C140.11 23.398 139.097 24.4429 137.813 24.4429ZM137.826 20.0883C136.654 20.0883 135.769 21.0187 135.769 22.1579C135.769 23.2967 136.649 24.2145 137.813 24.2145C138.984 24.2145 139.869 23.2849 139.869 22.1449C139.869 21.0061 138.989 20.0883 137.826 20.0883ZM138.332 22.3799L138.979 23.2846H138.432L137.851 22.4546H137.352V23.2846H136.895V20.8863H137.963C138.523 20.8863 138.889 21.1714 138.889 21.6514C138.891 22.0446 138.663 22.2848 138.335 22.3799H138.332ZM137.946 21.2978H137.352V22.0564H137.946C138.242 22.0564 138.42 21.9112 138.42 21.6767C138.42 21.4299 138.242 21.2978 137.946 21.2978Z" fill="white"/>
</g>
<defs>
<clipPath id="clip0_1_140">
<rect width="140" height="48" fill="white" transform="translate(0 0.702515)"/>
</clipPath>
</defs>
</svg>
