<svg width="72" height="49" viewBox="0 0 72 49" fill="none" xmlns="http://www.w3.org/2000/svg">
<g clip-path="url(#clip0_1_205)">
<path d="M4.14324 29.5572C4.44757 30.3648 4.8689 31.0554 5.40732 31.6288C5.94573 32.2023 6.5836 32.6412 7.32091 32.9456C8.0583 33.2499 8.86002 33.402 9.72614 33.402C10.5689 33.402 11.3589 33.244 12.0963 32.9279C12.8337 32.6119 13.4773 32.1672 14.0274 31.5937C14.5775 31.0202 15.0047 30.3355 15.309 29.5396C15.6134 28.7437 15.7655 27.8543 15.7655 26.8711V11.7025H19.4523V36.2812H15.8006V33.9989C14.9813 34.8649 14.0157 35.5321 12.9038 36.0003C11.7919 36.4684 10.5923 36.7025 9.30481 36.7025C7.99389 36.7025 6.77084 36.4743 5.6355 36.0178C4.50024 35.5614 3.51703 34.9118 2.6861 34.0691C1.85517 33.2263 1.19967 32.2141 0.719831 31.0319C0.239918 29.8498 0 28.5331 0 27.0817V11.7025H3.68679V26.8711C3.68679 27.8543 3.83892 28.7496 4.14324 29.5572Z" fill="white"/>
<path d="M25.8073 11.7025V20.6562C26.6266 19.8369 27.5747 19.1874 28.6514 18.7074C29.7282 18.2275 30.8987 17.9876 32.1626 17.9876C33.4736 17.9876 34.7024 18.2334 35.8494 18.7249C36.9964 19.2165 37.9912 19.8836 38.834 20.7264C39.6767 21.5691 40.3439 22.5639 40.8354 23.7109C41.327 24.858 41.5727 26.0752 41.5727 27.3627C41.5727 28.65 41.327 29.8614 40.8354 30.9967C40.3439 32.132 39.6767 33.1211 38.834 33.9637C37.9912 34.8064 36.9964 35.4736 35.8494 35.9651C34.7024 36.4567 33.4735 36.7024 32.1626 36.7024C30.8986 36.7024 29.7224 36.4625 28.6339 35.9826C27.5454 35.5028 26.5915 34.8532 25.7722 34.0339V36.2811H22.261V11.7025H25.8073ZM26.2111 29.7854C26.5271 30.5345 26.966 31.1899 27.5278 31.7517C28.0896 32.3135 28.7451 32.7583 29.4941 33.086C30.2432 33.4137 31.0508 33.5776 31.9169 33.5776C32.7596 33.5776 33.5555 33.4137 34.3045 33.086C35.0536 32.7583 35.7031 32.3136 36.2533 31.7517C36.8034 31.19 37.2423 30.5345 37.57 29.7854C37.8977 29.0363 38.0615 28.2288 38.0615 27.3627C38.0615 26.4965 37.8977 25.6831 37.57 24.9223C37.2423 24.1615 36.8034 23.5003 36.2533 22.9385C35.7031 22.3768 35.0536 21.9378 34.3045 21.6218C33.5554 21.3058 32.7596 21.1477 31.9169 21.1477C31.0742 21.1477 30.2783 21.3057 29.5293 21.6218C28.7803 21.9379 28.1248 22.3768 27.563 22.9385C27.0012 23.5003 26.5564 24.1615 26.2287 24.9223C25.901 25.6831 25.7372 26.4965 25.7372 27.3627C25.7371 28.2288 25.8951 29.0363 26.2111 29.7854Z" fill="white"/>
<path d="M43.5737 23.746C44.0418 22.6224 44.6856 21.6335 45.5048 20.7791C46.3241 19.9247 47.2956 19.2517 48.4192 18.7601C49.5428 18.2686 50.76 18.0228 52.0709 18.0228C53.3583 18.0228 54.5522 18.2569 55.6524 18.725C56.7525 19.1932 57.7006 19.8428 58.4965 20.6738C59.2923 21.5047 59.9127 22.488 60.3574 23.6232C60.8022 24.7585 61.0245 25.9933 61.0245 27.3276V28.4864H46.4529C46.57 29.212 46.8041 29.885 47.1552 30.5052C47.5064 31.1255 47.9452 31.6639 48.4719 32.1204C48.9986 32.5769 49.5955 32.9339 50.2626 33.1913C50.9298 33.4488 51.6378 33.5776 52.3869 33.5776C54.5171 33.5776 56.2377 32.6998 57.5485 30.9441L60.1117 32.8402C59.2222 34.034 58.122 34.9704 56.8112 35.6492C55.5003 36.328 54.0256 36.6674 52.387 36.6674C51.0527 36.6674 49.8063 36.4332 48.6476 35.9651C47.4888 35.497 46.4823 34.8415 45.6279 33.9988C44.7735 33.1561 44.1005 32.1671 43.609 31.0318C43.1174 29.8966 42.8716 28.6617 42.8716 27.3275C42.8714 26.0635 43.1056 24.8696 43.5737 23.746ZM48.507 22.3591C47.5121 23.1901 46.8509 24.2961 46.5232 25.6772H57.4432C57.1388 24.2961 56.4892 23.1901 55.4944 22.3591C54.4995 21.5281 53.335 21.1126 52.0007 21.1126C50.6664 21.1126 49.5019 21.5281 48.507 22.3591Z" fill="white"/>
<path d="M67.6607 22.7629C66.9117 23.5822 66.5371 24.694 66.5371 26.0986V36.2813H62.9907V18.3739H66.5019V20.586C66.9467 19.8603 67.5261 19.2868 68.24 18.8655C68.9539 18.4441 69.8025 18.2334 70.7857 18.2334H72.0146V21.5339H70.5399C69.3695 21.534 68.4097 21.9436 67.6607 22.7629Z" fill="white"/>
</g>
<defs>
<clipPath id="clip0_1_205">
<rect width="72" height="48" fill="white" transform="translate(0 0.702515)"/>
</clipPath>
</defs>
</svg>
