<svg width="132" height="49" viewBox="0 0 132 49" fill="none" xmlns="http://www.w3.org/2000/svg">
<g clip-path="url(#clip0_1_257)">
<path d="M21.8954 38.6752L13.2919 38.5178C10.5062 38.463 7.71363 38.5725 4.98269 38.0044C0.828101 37.1557 0.533789 32.9943 0.225788 29.5036C-0.198569 24.5961 -0.0343018 19.5997 0.7665 14.7332C1.21823 12.0023 2.9978 10.3733 5.74927 10.1954C15.0372 9.55198 24.3867 9.62727 33.6541 9.92843C34.6329 9.9558 35.6185 10.1064 36.5836 10.2775C41.3473 11.1125 41.4637 15.8284 41.7717 19.7981C42.0797 23.809 41.9496 27.8404 41.361 31.8239C40.8887 35.1229 39.9853 37.8881 36.1729 38.155C31.3955 38.5041 26.7275 38.7847 21.9364 38.6957C21.9364 38.6752 21.909 38.6752 21.8954 38.6752ZM16.8373 30.3249C20.4375 28.2579 23.9692 26.2251 27.5489 24.1718C23.9418 22.1047 20.417 20.0719 16.8373 18.0186V30.3249Z" fill="white"/>
<path d="M111.003 34.9241C110.839 35.5948 110.695 36.1219 110.552 36.6831H107.184V10.7084H111.113V20.2906C111.318 20.0305 111.421 19.921 111.51 19.8047C112.181 18.8807 113.05 18.2784 114.172 18.0456C115.959 17.6966 117.485 18.4837 118.026 20.2016C118.375 21.2694 118.601 22.4124 118.628 23.5281C118.683 26.3959 118.642 29.2569 118.539 32.1247C118.498 33.0008 118.231 33.8974 117.896 34.7188C116.794 37.4292 113.194 37.8398 111.407 35.4922C111.298 35.3484 111.195 35.191 111.003 34.9241ZM111.195 32.5285C111.195 33.3019 111.606 33.7742 112.379 33.9522C113.139 34.1301 113.755 33.8358 114.063 33.1308C114.193 32.8365 114.323 32.5285 114.33 32.2205C114.405 29.3185 114.474 26.4164 114.494 23.5075C114.494 22.9668 114.364 22.4056 114.2 21.8785C113.892 20.9272 113.043 20.6465 112.208 21.2009C111.578 21.6253 111.195 22.2276 111.195 23.0284V32.5285ZM100.518 18.4152H104.631V36.6968H101.421C101.305 36.0055 101.188 35.2937 101.052 34.4587C100.833 34.7804 100.703 34.9857 100.566 35.191C99.4979 36.731 97.9853 37.258 96.1989 36.9774C94.6725 36.731 93.7554 35.5538 93.55 33.6236C93.4884 33.0487 93.4611 32.4669 93.4611 31.892C93.4474 27.6142 93.4611 23.3227 93.4611 19.0449V18.4016H97.6225V19.1476C97.6225 23.2817 97.6088 27.4089 97.6362 31.5429C97.6362 32.1315 97.6978 32.7407 97.8005 33.3293C97.9168 33.9316 98.3549 34.1507 98.9435 34.1096C99.8949 34.0343 100.552 33.3293 100.552 32.3848V19.2229C100.518 18.956 100.518 18.7096 100.518 18.4152ZM72.1953 18.4016H76.3294V19.175C76.3294 23.2885 76.3157 27.3952 76.3431 31.495C76.3431 32.0836 76.3978 32.6928 76.521 33.2677C76.6784 33.9453 77.0754 34.1644 77.753 34.0754C78.6907 33.9453 79.2588 33.2951 79.2656 32.3437V18.4289H83.3792V36.6968H80.1828C80.0664 36.0192 79.9501 35.3211 79.7995 34.4381C79.5942 34.7461 79.4778 34.9241 79.3615 35.1089C78.2937 36.6763 76.7948 37.2512 74.9673 36.9706C73.5026 36.7516 72.606 35.6701 72.3322 33.8974C72.2569 33.343 72.2022 32.7955 72.2022 32.2411C72.1885 27.799 72.1885 23.3364 72.1885 18.8944L72.1953 18.4016ZM70.0735 28.1618C70.0598 28.7778 70.0188 29.3938 69.9846 30.0098C69.8271 31.8578 69.7518 34.4792 68.2597 35.8276C67.3084 36.6763 66.1037 36.9843 64.858 37.0253C64.3036 37.039 63.7424 37.039 63.188 36.9637C60.5666 36.5668 59.3482 35.41 58.9102 32.5285C58.4106 29.2021 58.3695 25.821 58.965 22.4945C59.581 19.0518 61.7027 17.8335 65.0018 18.0593C68.0818 18.2784 69.4575 20.2975 69.8203 23.1721C70.0188 24.8217 70.1146 26.4917 70.0735 28.1618ZM65.8847 27.5321C65.8847 26.3617 65.9121 25.1844 65.871 24.014C65.8436 23.3364 65.7547 22.652 65.6109 21.9812C65.4467 21.2078 64.9539 20.8382 64.3379 20.8519C63.7356 20.8656 63.3112 21.2352 63.0922 21.9538C63.0169 22.2208 62.9347 22.4945 62.9347 22.7615C62.9347 24.5958 62.9211 26.437 62.9074 28.2713C62.8937 29.9824 62.6747 31.7756 63.2154 33.4115C63.3796 33.9111 63.804 34.1849 64.3584 34.1849C64.8991 34.1849 65.255 33.9179 65.4535 33.4388C65.6109 33.0692 65.7478 32.6654 65.7478 32.2684C65.7957 30.6942 65.8847 29.1131 65.8847 27.5321ZM52.8734 24.0893C53.2361 22.3166 53.5784 20.5849 53.9548 18.8464C54.4271 16.6357 54.9541 14.4249 55.4195 12.2073C55.5359 11.6666 55.7549 11.5366 56.2682 11.5502C57.3702 11.5913 58.4927 11.5639 59.6699 11.5639C59.2866 12.9739 58.9102 14.3154 58.5406 15.6364C57.3702 19.7841 56.1998 23.9456 55.0431 28.107C54.9541 28.4287 54.913 28.7778 54.913 29.12C54.8993 31.3923 54.913 33.6579 54.913 35.9302V36.6694H50.8953C50.8816 36.4641 50.8543 36.2588 50.8543 36.0534C50.8543 34.7667 50.7516 33.4731 50.868 32.2C51.1623 29.1405 50.1904 26.3274 49.4032 23.4801C48.3629 19.7157 47.3088 15.9375 46.2685 12.1731C46.2137 11.9951 46.1932 11.8035 46.1384 11.5845H50.2383C51.1007 15.7391 51.9699 19.8936 52.8734 24.0893ZM131.482 28.8599H124.555C124.631 30.2493 124.658 31.5703 124.802 32.8776C124.905 33.7879 125.404 34.178 126.191 34.1849C127.013 34.1986 127.492 33.7879 127.683 32.8844C127.745 32.5901 127.786 32.2958 127.813 31.9947C127.841 31.7277 127.855 31.4403 127.875 31.057C129.045 31.1186 130.188 31.187 131.318 31.2349C131.975 33.1856 130.791 35.6907 128.799 36.4641C127.232 37.0801 125.623 37.0801 124.022 36.6078C122.838 36.2588 121.955 35.5059 121.558 34.3492C121.188 33.2677 120.839 32.1384 120.764 31.0091C120.558 28.2234 120.483 25.4103 120.907 22.6177C120.983 22.1523 121.113 21.7074 121.256 21.2557C121.831 19.394 123.084 18.251 125.021 18.0593C126.075 17.9567 127.163 17.9977 128.204 18.1757C129.887 18.47 130.784 19.6815 131.174 21.2694C131.352 22.0154 131.482 22.782 131.509 23.5417C131.516 25.2871 131.482 27.0187 131.482 28.8599ZM127.547 26.4575C127.547 25.0817 127.56 23.7881 127.533 22.4877C127.533 22.1797 127.416 21.858 127.3 21.5637C127.067 20.9888 126.581 20.8313 126 20.8313C125.418 20.8313 125.048 21.1256 124.905 21.6527C124.466 23.2337 124.61 24.849 124.624 26.4712C125.671 26.4575 126.623 26.4575 127.547 26.4575Z" fill="white"/>
<path d="M86.5549 14.9177H82.4824V11.6187H94.6382V14.8972H90.5931V36.6694H86.5617L86.5549 14.9177Z" fill="white"/>
</g>
<defs>
<clipPath id="clip0_1_257">
<rect width="132" height="48" fill="white" transform="translate(0 0.702515)"/>
</clipPath>
</defs>
</svg>
