<?xml version="1.0" encoding="UTF-8"?>
<svg id="Camada_1" data-name="Camada 1" xmlns="http://www.w3.org/2000/svg" viewBox="0 0 1000 1000">
  <defs>
    <style>
      .cls-1 {
        fill: #fff;
      }

      .cls-2 {
        fill: #a8d8f2;
      }

      .cls-3 {
        fill: #0078c1;
      }
    </style>
  </defs>
  <rect class="cls-3" x="10" y="10" width="980" height="980" rx="123.55" ry="123.55"/>
  <g>
    <path class="cls-2" d="M500,146.53c-142.47,0-257.96,115.49-257.96,257.96s115.49,257.96,257.96,257.96,257.96-115.49,257.96-257.96-115.49-257.96-257.96-257.96ZM500,586.85c-100.71,0-182.35-81.64-182.35-182.35s81.64-182.35,182.35-182.35,182.35,81.64,182.35,182.35-81.64,182.35-182.35,182.35Z"/>
    <path class="cls-1" d="M220.11,399.53c0-151.94,125.4-275,279.96-275s279.96,123.07,279.96,275c0,173.95-175.27,382.47-248.47,461.94-17.21,18.66-45.93,18.66-63.14,0-73.2-79.47-248.47-287.98-248.47-461.94h.15ZM500.07,623.96c121.21,0,219.46-98.26,219.46-219.46s-98.26-219.46-219.46-219.46-219.46,98.26-219.46,219.46,98.26,219.46,219.46,219.46Z"/>
    <path class="cls-2" d="M584.36,484.67c-5.67,3.69-13.24,6.53-21.56,8.69-16.82,4.36-39.27,6.64-62.8,6.64s-45.98-2.27-62.8-6.64c-8.35-2.24-15.89-5.03-21.56-8.73-5.48-3.58-11.11-9.29-11.11-17.53s5.63-13.95,11.11-17.53c5.67-3.69,13.24-6.53,21.56-8.69,6.9-1.79,14.73-3.21,23.16-4.29l1.98,17.83c-7.68.97-14.66,2.27-20.66,3.8-21.11,5.44-21.11,12.27,0,17.71,14.88,3.84,35.73,6.04,58.33,6.04s43.45-2.2,58.33-6.04c21.11-5.44,21.11-12.27,0-17.71-6-1.57-12.98-2.83-20.66-3.8l1.98-17.79c8.47,1.08,16.3,2.5,23.16,4.29,8.35,2.16,15.89,4.96,21.56,8.69,5.48,3.58,11.11,9.29,11.11,17.53s-5.63,13.95-11.11,17.53Z"/>
    <circle class="cls-1" cx="500" cy="332.85" r="23.87"/>
    <path class="cls-1" d="M464.16,392.52c0-13.16,10.7-23.87,23.87-23.87h23.9c13.16,0,23.87,10.7,23.87,23.87v17.9c0,6.6-5.33,11.93-11.93,11.93h-.67l-4.14,37.11c-.67,6.04-5.78,10.63-11.86,10.63h-14.43c-6.08,0-11.19-4.59-11.86-10.63l-4.14-37.11h-.67c-6.6,0-11.93-5.33-11.93-11.93v-17.9Z"/>
  </g>
</svg>