<?xml version="1.0" encoding="UTF-8"?>
<svg id="Camada_1" data-name="Camada 1" xmlns="http://www.w3.org/2000/svg" viewBox="0 0 1000 1000">
  <defs>
    <style>
      .cls-1 {
        fill: none;
        stroke: #fff;
        stroke-linecap: round;
        stroke-linejoin: round;
        stroke-width: 40px;
      }
    </style>
  </defs>
  <path class="cls-1" d="M679.26,380.5c0,107.94-115.59,221.95-161.12,262.76-10.71,8.18-25.56,8.18-36.27,0-45.5-40.81-161.12-154.82-161.12-262.76,0-99,80.26-179.26,179.26-179.26s179.26,80.26,179.26,179.26"/>
  <circle class="cls-1" cx="500" cy="380.5" r="59.75"/>
  <path class="cls-1" d="M401.84,559.75h-110.84c-12.85,0-24.25,8.22-28.32,20.41l-59.87,179.26c-5.23,15.65,3.22,32.58,18.86,37.81,3.05,1.02,6.24,1.54,9.46,1.54h537.77c16.5-.01,29.87-13.4,29.85-29.9,0-3.2-.52-6.38-1.53-9.42l-59.75-179.26c-4.07-12.21-15.49-20.44-28.35-20.44h-110.9"/>
</svg>
